<svg version="1.1" id="Calque_1" xmlns="http://www.w3.org/2000/svg" xmlns:xlink="http://www.w3.org/1999/xlink" x="0px" y="0px" viewBox="0 0 450 450" style="enable-background:new 0 0 450 450;" xml:space="preserve" width="100%" height="100%">
<style type="text/css">
    .st0{fill:#FFFFFF;stroke:#C0D7F1;stroke-width:2;stroke-miterlimit:10;}
    .st1{fill:#FFFFFF;stroke:#0B82C5;stroke-width:2;stroke-miterlimit:10;}
    .st2{fill:none;stroke:#0B82C5;stroke-width:2;stroke-linecap:round;stroke-miterlimit:10;}
</style>
<path id="XMLID_22_" class="st0" d="M341.4,336.3H145.3c-4.3,0-7.8-3.5-7.8-7.8V187.5c0-4.3,3.5-7.8,7.8-7.8h196.1
    c4.3,0,7.8,3.5,7.8,7.8v140.9C349.2,332.8,345.7,336.3,341.4,336.3z" style="stroke-dasharray: 724, 726; stroke-dashoffset: 0;"></path>
<path id="XMLID_27_" class="st0" d="M157.7,267.5L240.6,267.5" style="stroke-dasharray: 83, 85; stroke-dashoffset: 0;"></path>
<path id="XMLID_28_" class="st0" d="M157.7,282.6L240.6,282.6" style="stroke-dasharray: 83, 85; stroke-dashoffset: 0;"></path>
<path id="XMLID_29_" class="st0" d="M157.7,297.6L240.6,297.6" style="stroke-dasharray: 83, 85; stroke-dashoffset: 0;"></path>
<path id="XMLID_25_" class="st0" d="M211.7,215.5L316.9,215.5" style="stroke-dasharray: 106, 108; stroke-dashoffset: 0;"></path>
<path id="XMLID_26_" class="st0" d="M211.7,231.7L316.9,231.7" style="stroke-dasharray: 106, 108; stroke-dashoffset: 0;"></path>
<g id="XMLID_21_">
    <g id="XMLID_10_">
        <path id="XMLID_1_" class="st1" d="M371,317.7H250.3c-7.3,0-13.3-5.9-13.3-13.3V133.3c0-7.3,5.9-13.3,13.3-13.3h107.5
            c7.3,0,13.3,5.9,13.3,13.3V317.7z" style="stroke-dasharray: 647, 649; stroke-dashoffset: 0;"></path>
        <path id="XMLID_3_" class="st1" d="M237,171.4L371,171.4" style="stroke-dasharray: 134, 136; stroke-dashoffset: 0;"></path>
        <path id="XMLID_2_" class="st1" d="M290.7,145.8A13.3,13.3 0,1,1 317.3,145.8A13.3,13.3 0,1,1 290.7,145.8" style="stroke-dasharray: 84, 86; stroke-dashoffset: 0;"></path>
        <g id="XMLID_9_">
            <path id="XMLID_5_" class="st1" d="M253.29999999999998,194.7A9.9,9.9 0,1,1 273.09999999999997,194.7A9.9,9.9 0,1,1 253.29999999999998,194.7" style="stroke-dasharray: 63, 65; stroke-dashoffset: 0;"></path>
            <path id="XMLID_6_" class="st1" d="M280.6,194.7L353.3,194.7" style="stroke-dasharray: 73, 75; stroke-dashoffset: 0;"></path>
        </g>
        <g id="XMLID_4_">
            <path id="XMLID_8_" class="st1" d="M333.5,225.3A9.9,9.9 0,1,1 353.29999999999995,225.3A9.9,9.9 0,1,1 333.5,225.3" style="stroke-dasharray: 63, 65; stroke-dashoffset: 0;"></path>
            <path id="XMLID_7_" class="st1" d="M326,225.3L253.4,225.3" style="stroke-dasharray: 73, 75; stroke-dashoffset: 0;"></path>
        </g>
        <g id="XMLID_14_">
            <path id="XMLID_16_" class="st1" d="M253.29999999999998,251.9A9.9,9.9 0,1,1 273.09999999999997,251.9A9.9,9.9 0,1,1 253.29999999999998,251.9" style="stroke-dasharray: 63, 65; stroke-dashoffset: 0;"></path>
            <path id="XMLID_15_" class="st1" d="M280.6,251.9L353.3,251.9" style="stroke-dasharray: 73, 75; stroke-dashoffset: 0;"></path>
        </g>
        <g id="XMLID_11_">
            <path id="XMLID_13_" class="st1" d="M333.5,282.6A9.9,9.9 0,1,1 353.29999999999995,282.6A9.9,9.9 0,1,1 333.5,282.6" style="stroke-dasharray: 63, 65; stroke-dashoffset: 0;"></path>
            <path id="XMLID_12_" class="st1" d="M326,282.6L253.4,282.6" style="stroke-dasharray: 73, 75; stroke-dashoffset: 0;"></path>
        </g>
    </g>
    <path id="XMLID_17_" class="st1" d="M386.7,319.2v-15.8h15.8c7.1,0,12.8,5.7,12.8,12.8v3c0,7.1-5.7,12.8-12.8,12.8h-3
        C392.4,332,386.7,326.3,386.7,319.2z" style="stroke-dasharray: 98, 100; stroke-dashoffset: 0;"></path>
    <g id="XMLID_20_">
        <path id="XMLID_19_" class="st2" d="M404.9,313L397.2,320.7" style="stroke-dasharray: 11, 13; stroke-dashoffset: 0;"></path>
        <path id="XMLID_18_" class="st2" d="M404.9,320.7L397.2,313" style="stroke-dasharray: 11, 13; stroke-dashoffset: 0;"></path>
    </g>
</g>
<path id="XMLID_23_" class="st0" width="41.2" height="41.2" d="M157.7 204.6 L198.89999999999998 204.6 L198.89999999999998 245.8 L157.7 245.8 Z" style="stroke-dasharray: 165, 167; stroke-dashoffset: 0;"></path>
</svg>
