<svg version="1.1" id="Calque_1" xmlns="http://www.w3.org/2000/svg" xmlns:xlink="http://www.w3.org/1999/xlink" x="0px" y="0px" viewBox="0 0 450 450" style="enable-background:new 0 0 450 450;" xml:space="preserve" width="100%" height="100%">
<style type="text/css">
    .st0{fill:#FFFFFF;stroke:#C0D7F1;stroke-width:2;stroke-miterlimit:10;}
    .st1{fill:#FFFFFF;stroke:#0D82C5;stroke-width:2;stroke-miterlimit:10;}
</style>
<path id="XMLID_1_" class="st0" d="M400.1,350.8H89.4c-1.8,0-3.2-1.4-3.2-3.2V134.2c0-1.8,1.4-3.2,3.2-3.2h310.6
    c1.8,0,3.2,1.4,3.2,3.2v213.4C403.3,349.4,401.8,350.8,400.1,350.8z" style="stroke-dasharray: 1069, 1071; stroke-dashoffset: 0;"></path>
<path id="XMLID_3_" class="st0" d="M86.2,152.4L403.3,152.4" style="stroke-dasharray: 318, 320; stroke-dashoffset: 0;"></path>
<path id="XMLID_2_" class="st0" d="M101.30000000000001,141.9A3.1,3.1 0,1,1 107.5,141.9A3.1,3.1 0,1,1 101.30000000000001,141.9" style="stroke-dasharray: 20, 22; stroke-dashoffset: 0;"></path>
<path id="XMLID_5_" class="st0" d="M112.80000000000001,141.9A3.1,3.1 0,1,1 119,141.9A3.1,3.1 0,1,1 112.80000000000001,141.9" style="stroke-dasharray: 20, 22; stroke-dashoffset: 0;"></path>
<path id="XMLID_6_" class="st0" d="M124.30000000000001,141.9A3.1,3.1 0,1,1 130.5,141.9A3.1,3.1 0,1,1 124.30000000000001,141.9" style="stroke-dasharray: 20, 22; stroke-dashoffset: 0;"></path>
<path id="XMLID_7_" class="st0" d="M157.8,152.4L157.8,350.8" style="stroke-dasharray: 199, 201; stroke-dashoffset: 0;"></path>
<path id="XMLID_8_" class="st0" d="M306.1,152.4L306.1,350.8" style="stroke-dasharray: 199, 201; stroke-dashoffset: 0;"></path>
<path id="XMLID_13_" class="st0" d="M339.2,209.2A18.1,18.1 0,1,1 375.40000000000003,209.2A18.1,18.1 0,1,1 339.2,209.2" style="stroke-dasharray: 114, 116; stroke-dashoffset: 0;"></path>
<path id="XMLID_15_" class="st0" d="M336.7,240.9L381,240.9" style="stroke-dasharray: 45, 47; stroke-dashoffset: 0;"></path>
<path id="XMLID_16_" class="st0" d="M347.4,251.6L370.3,251.6" style="stroke-dasharray: 23, 25; stroke-dashoffset: 0;"></path>
<g id="XMLID_17_">
    <path id="XMLID_14_" class="st0" d="M175.1,186A9.4,9.4 0,1,1 193.9,186A9.4,9.4 0,1,1 175.1,186" style="stroke-dasharray: 60, 62; stroke-dashoffset: 0;"></path>
    <path id="XMLID_18_" class="st0" d="M203.6,182.7L275,182.7" style="stroke-dasharray: 72, 74; stroke-dashoffset: 0;"></path>
    <path id="XMLID_19_" class="st0" d="M203.6,191.1L253.1,191.1" style="stroke-dasharray: 50, 52; stroke-dashoffset: 0;"></path>
</g>
<g id="XMLID_21_">
    <path id="XMLID_24_" class="st0" d="M256.20000000000005,220.7A9.4,9.4 0,1,1 275,220.7A9.4,9.4 0,1,1 256.20000000000005,220.7" style="stroke-dasharray: 60, 62; stroke-dashoffset: 0;"></path>
    <path id="XMLID_23_" class="st0" d="M246.4,224L175.1,224" style="stroke-dasharray: 72, 74; stroke-dashoffset: 0;"></path>
    <path id="XMLID_22_" class="st0" d="M246.4,215.6L197,215.6" style="stroke-dasharray: 50, 52; stroke-dashoffset: 0;"></path>
</g>
<g id="XMLID_29_">
    <path id="XMLID_32_" class="st0" d="M175.1,254.8A9.4,9.4 0,1,1 193.9,254.8A9.4,9.4 0,1,1 175.1,254.8" style="stroke-dasharray: 60, 62; stroke-dashoffset: 0;"></path>
    <path id="XMLID_31_" class="st0" d="M203.6,251.5L275,251.5" style="stroke-dasharray: 72, 74; stroke-dashoffset: 0;"></path>
    <path id="XMLID_30_" class="st0" d="M203.6,259.9L253.1,259.9" style="stroke-dasharray: 50, 52; stroke-dashoffset: 0;"></path>
</g>
<g id="XMLID_25_">
    <path id="XMLID_28_" class="st0" d="M256.20000000000005,289.5A9.4,9.4 0,1,1 275,289.5A9.4,9.4 0,1,1 256.20000000000005,289.5" style="stroke-dasharray: 60, 62; stroke-dashoffset: 0;"></path>
    <path id="XMLID_27_" class="st0" d="M246.4,292.8L175.1,292.8" style="stroke-dasharray: 72, 74; stroke-dashoffset: 0;"></path>
    <path id="XMLID_26_" class="st0" d="M246.4,284.4L197,284.4" style="stroke-dasharray: 50, 52; stroke-dashoffset: 0;"></path>
</g>
<g id="XMLID_45_">
    <path id="XMLID_33_" class="st1" d="M174.6,382H59.9c-2.3,0-4.2-1.9-4.2-4.2V260.4c0-2.3,1.9-4.2,4.2-4.2h114.7
        c2.3,0,4.2,1.9,4.2,4.2v117.3C178.8,380.1,176.9,382,174.6,382z" style="stroke-dasharray: 491, 493; stroke-dashoffset: 0;"></path>
    <path id="XMLID_34_" class="st1" d="M102.39999999999999,283.6A13.9,13.9 0,1,1 130.2,283.6A13.9,13.9 0,1,1 102.39999999999999,283.6" style="stroke-dasharray: 88, 90; stroke-dashoffset: 0;"></path>
    <path id="XMLID_36_" class="st1" d="M82.8,314.5L152.1,314.5" style="stroke-dasharray: 70, 72; stroke-dashoffset: 0;"></path>
    <path id="XMLID_37_" class="st1" d="M97.8,324.6L138.2,324.6" style="stroke-dasharray: 41, 43; stroke-dashoffset: 0;"></path>
    <path id="XMLID_35_" class="st1" d="M127.6,367.9H105c-4,0-7.3-3.3-7.3-7.3v0c0-4,3.3-7.3,7.3-7.3h22.6c4,0,7.3,3.3,7.3,7.3v0
        C134.9,364.6,131.6,367.9,127.6,367.9z" style="stroke-dasharray: 92, 94; stroke-dashoffset: 0;"></path>
</g>
<g id="XMLID_39_">
    <path id="XMLID_43_" class="st1" d="M336.4,184.5H221.7c-2.3,0-4.2-1.9-4.2-4.2V62.9c0-2.3,1.9-4.2,4.2-4.2h114.7
        c2.3,0,4.2,1.9,4.2,4.2v117.3C340.6,182.6,338.7,184.5,336.4,184.5z" style="stroke-dasharray: 491, 493; stroke-dashoffset: 0;"></path>
    <path id="XMLID_41_" class="st1" d="M244.6,127.1L313.9,127.1" style="stroke-dasharray: 70, 72; stroke-dashoffset: 0;"></path>
    <path id="XMLID_40_" class="st1" d="M244.8,137.1L299.9,137.1" style="stroke-dasharray: 56, 58; stroke-dashoffset: 0;"></path>
    <path id="XMLID_44_" class="st1" d="M244.6,147.4L313.9,147.4" style="stroke-dasharray: 70, 72; stroke-dashoffset: 0;"></path>
    <path id="XMLID_42_" class="st1" d="M244.6,157.5L285,157.5" style="stroke-dasharray: 41, 43; stroke-dashoffset: 0;"></path>
    <path id="XMLID_38_" class="st1" d="M266,101h34.6c0.3,0,0.5-0.2,0.5-0.5V74.9c0-0.3-0.2-0.5-0.5-0.5h-41.6c-0.3,0-0.5,0.2-0.5,0.5
        V101v6.3c0,0.5,0.6,0.7,0.9,0.4l6.2-6.5C265.7,101.1,265.8,101,266,101z" style="stroke-dasharray: 148, 150; stroke-dashoffset: 0;"></path>
</g>
</svg>
