<svg id="Layer_1" data-name="Layer 1" xmlns="http://www.w3.org/2000/svg" viewBox="0 0 68.84 72.64"><defs><style>.cls-1{fill:#00549e;}</style></defs><title>favicon</title><g id="Layer_1-2" data-name="Layer 1-2"><path class="cls-1" d="M34.57,13c-1.24.41-3.43,1.34-6,2.5A47.34,47.34,0,0,0,25,33.5c0,2.59.09,5,.29,7.34A97.58,97.58,0,0,0,40.41,20.62c4.19-7.49-.24-9.49-5.84-7.67M29.2,64.72c-3.18,2.82-5.39,4.7-5.39,4.7.62-.62,2.45-2.72,4.79-5.47-5.51-7.13-10-17.1-10.11-30.87a41.13,41.13,0,0,1,2.2-13.91c-4.9,2.37-9.12,4.49-9.12,4.49.48-.3,4.78-3.31,9.93-6.65A46.25,46.25,0,0,1,33.89,0C15.13.3,0,16.43,0,36.31,0,56.37,15.41,72.64,34.42,72.64c.92,0,1.82-.07,2.72-.14a48.3,48.3,0,0,1-7.94-7.78m14.62-19c4-5,4.38-14.85-7.79-9.86A66.42,66.42,0,0,0,25.36,41.6a53,53,0,0,0,5.55,19.66c4.78-5.66,10.56-12.62,12.91-15.54M38.32.22a54.84,54.84,0,0,0-7.88,11.29,41.28,41.28,0,0,1,7.9-3.79c7.3-2.07,12.44,1.38,7.79,9.13-3.29,5.47-9.61,15.09-9.61,15.09,15.17-8.28,18.13,5.18,13.87,11.32-3.61,5.2-12.31,13.45-18.77,19.29a39.83,39.83,0,0,0,7.69,9.69C56,69.72,68.84,54.62,68.84,36.31c0-18.68-13.34-34-30.52-36.09" transform="translate(0 0)"/></g></svg>