<svg id="Layer_1" data-name="Layer 1" xmlns="http://www.w3.org/2000/svg" viewBox="0 0 299.58 106.85"><defs><style>.cls-1{fill:#00549e;}.cls-2{fill:#00aeef;}</style></defs><title>logo-bluecare - Copy</title><g id="Layer_1-2" data-name="Layer 1-2"><path class="cls-1" d="M34.57,13c-1.24.41-3.43,1.34-6,2.5A47.34,47.34,0,0,0,25,33.5c0,2.59.09,5,.29,7.34A97.58,97.58,0,0,0,40.41,20.62c4.19-7.49-.24-9.49-5.84-7.67M29.2,64.72c-3.18,2.82-5.39,4.7-5.39,4.7.62-.62,2.45-2.72,4.79-5.47-5.51-7.13-10-17.1-10.11-30.87a41.13,41.13,0,0,1,2.2-13.91c-4.9,2.37-9.12,4.49-9.12,4.49.48-.3,4.78-3.31,9.93-6.65A46.25,46.25,0,0,1,33.89,0C15.13.3,0,16.43,0,36.31,0,56.37,15.41,72.64,34.42,72.64c.92,0,1.82-.07,2.72-.14a48.3,48.3,0,0,1-7.94-7.78m14.62-19c4-5,4.38-14.85-7.79-9.86A66.42,66.42,0,0,0,25.36,41.6a53,53,0,0,0,5.55,19.66c4.78-5.66,10.56-12.62,12.91-15.54M38.32.22a54.84,54.84,0,0,0-7.88,11.29,41.28,41.28,0,0,1,7.9-3.79c7.3-2.07,12.44,1.38,7.79,9.13-3.29,5.47-9.61,15.09-9.61,15.09,15.17-8.28,18.13,5.18,13.87,11.32-3.61,5.2-12.31,13.45-18.77,19.29a39.83,39.83,0,0,0,7.69,9.69C56,69.72,68.84,54.62,68.84,36.31c0-18.68-13.34-34-30.52-36.09" transform="translate(0 0)"/><path class="cls-1" d="M106.41,42.8a11.82,11.82,0,0,0-6-3.69,13,13,0,0,0,2.16-.88,9.09,9.09,0,0,0,4.4-8.1,9.34,9.34,0,0,0-3.37-7.33,12.52,12.52,0,0,0-1.92-1.39,9.75,9.75,0,0,0-2.19-.91A14.49,14.49,0,0,0,96.8,20c-1.11-.1-2.23-.15-3.34-.14H79.57V60.91H95.51c.86,0,1.6,0,2.27-.09a11.72,11.72,0,0,0,4.73-1.12,10.53,10.53,0,0,0,3.35-2.57,11,11,0,0,0,2-3.55,12.43,12.43,0,0,0,.69-4.1,10.1,10.1,0,0,0-2.13-6.65M98.6,51.21a4.89,4.89,0,0,1-1.54,2,3.63,3.63,0,0,1-1.59.74,10.59,10.59,0,0,1-2.25.21H87.85V43.06H93a14.62,14.62,0,0,1,1.8.06,6.63,6.63,0,0,1,1.39.3,3.76,3.76,0,0,1,2.18,1.83,6.1,6.1,0,0,1,.83,3.18,6.8,6.8,0,0,1-.59,2.78M97.67,34a4.09,4.09,0,0,1-1.48,1.71,3.79,3.79,0,0,1-1.31.42,18.83,18.83,0,0,1-2.25.11H87.72v-9.4h4.8a12.64,12.64,0,0,1,2.13.15,5.39,5.39,0,0,1,1.3.38A3.39,3.39,0,0,1,97.69,29a5.22,5.22,0,0,1,.63,2.48A5.43,5.43,0,0,1,97.67,34M127.5,60.8l-1.37-4.73a1.91,1.91,0,0,1-.47.12h-.41a1.7,1.7,0,0,1-1.6-.83,3.2,3.2,0,0,1-.44-1.71c0-.48,0-1.11-.06-1.9s0-1.83,0-3.13V25c0-2.13,0-3.76-.09-4.9a23.12,23.12,0,0,0-.32-3L114.61,19q.24,2.07.33,4.08c.06,1.34.09,3,.09,5V53.35a14.35,14.35,0,0,0,.12,1.77,10.49,10.49,0,0,0,.2,1.25,7.31,7.31,0,0,0,.36,1.12,5.87,5.87,0,0,0,2.6,3,8.41,8.41,0,0,0,4.43,1.13,13.39,13.39,0,0,0,4.73-.83m23.76.92,5.61-3.17A7.73,7.73,0,0,1,155.51,56a9.85,9.85,0,0,1-.47-3V30l-7.56,1.59V52.83a3.52,3.52,0,0,1-.77,1.06,6.44,6.44,0,0,1-1.21,1,6.2,6.2,0,0,1-1.44.64,4.87,4.87,0,0,1-1.47.24,3.9,3.9,0,0,1-1.68-.38,2.17,2.17,0,0,1-1.09-1,6.83,6.83,0,0,1-.48-1.77,22.8,22.8,0,0,1-.17-3.2V29.88l-7.82,1.48V50.75c0,1.23,0,2.45.15,3.67a11.28,11.28,0,0,0,.5,2.36,6.61,6.61,0,0,0,3.25,3.55,11.56,11.56,0,0,0,5.67,1.36,11,11,0,0,0,8-2.9,6.46,6.46,0,0,0,2.36,2.93m18.87-13.47h17.5V46.42a27.29,27.29,0,0,0-1-7.94,12.81,12.81,0,0,0-3-5.29,9.82,9.82,0,0,0-3.78-2.36,14.7,14.7,0,0,0-5-.83,13.14,13.14,0,0,0-5.32,1,12.36,12.36,0,0,0-4.19,3.07,13.7,13.7,0,0,0-2.9,5.08,23.42,23.42,0,0,0-.88,6.91,19.57,19.57,0,0,0,1,6.44,14.11,14.11,0,0,0,2.86,4.93,12.81,12.81,0,0,0,4.5,3.16,14.91,14.91,0,0,0,5.94,1.12,17.82,17.82,0,0,0,11.4-4.19L184.2,52.8a12,12,0,0,1-7.69,3,5.94,5.94,0,0,1-4.73-1.89,8,8,0,0,1-1.65-5.43Zm9.28-6.13v.35h-9.16v-.12a8.15,8.15,0,0,1,1.24-4.88A4.11,4.11,0,0,1,175,35.78a3.92,3.92,0,0,1,3.48,1.78,5.31,5.31,0,0,1,.74,1.83,13.9,13.9,0,0,1,.21,2.73" transform="translate(0 0)"/><path class="cls-2" d="M221.26,57.79l-3.78-5.2A11.59,11.59,0,0,1,214,54.66a10.78,10.78,0,0,1-3.51.59,8.43,8.43,0,0,1-7.92-4.61,12.58,12.58,0,0,1-1.33-4.23,46.42,46.42,0,0,1-.38-6.77q0-7.1,2.3-10.59a7.77,7.77,0,0,1,3-2.6,8.69,8.69,0,0,1,4-.95,10.86,10.86,0,0,1,6.56,2.31l3.72-5.62a12.55,12.55,0,0,0-4.52-2.36,19.23,19.23,0,0,0-5.88-.89,17.27,17.27,0,0,0-9.13,2.51,18.54,18.54,0,0,0-6.59,7,27,27,0,0,0-2.78,12.77q0,9.16,5,14.72T210,61.62a19.09,19.09,0,0,0,6.23-.92,17,17,0,0,0,5.17-2.92M246,62.44l4.2-4.85a9,9,0,0,1-1.57-1.45,5.39,5.39,0,0,1-.86-1.44,5.72,5.72,0,0,1-.35-1.69q-.06-.91-.06-2.16l.18-10.16V38.63a13.34,13.34,0,0,0-.12-2,6,6,0,0,0-.41-1.39,7,7,0,0,0-3.38-3.9A13.26,13.26,0,0,0,237.14,30a19.27,19.27,0,0,0-4,.42,22.33,22.33,0,0,0-4.22,1.36A27.32,27.32,0,0,0,226.26,33a20.87,20.87,0,0,0-2.25,1.3l3.37,5.67A26.27,26.27,0,0,1,232,37.39a11,11,0,0,1,4.08-.89c1.46,0,2.41.33,2.87,1a6.56,6.56,0,0,1,.67,3.51v1.24a4.34,4.34,0,0,0-.88-.06h-.89q-7.33,0-10.93,2.51c-2.4,1.67-3.6,4.31-3.61,7.9q0,4.6,2.63,7c1.75,1.6,4.35,2.4,7.78,2.4a10,10,0,0,0,6.09-1.65,6.43,6.43,0,0,0,.92-.71c.29-.28.6-.57.91-.89a6.56,6.56,0,0,0,1.75,2.13,10.79,10.79,0,0,0,2.51,1.54m-6.75-14.79h.36l-.12,6.52a5.32,5.32,0,0,1-4.15,2.07,3.2,3.2,0,0,1-2.51-1.09,4.21,4.21,0,0,1-1-2.88c0-1.82.54-3,1.63-3.67s3-1,5.77-1m31.57-10.1,2.19-7a8,8,0,0,0-1.51-.53,7,7,0,0,0-1.44-.12,6.62,6.62,0,0,0-4,1.3,14.32,14.32,0,0,0-3.07,3,9.9,9.9,0,0,0-1.25-4.31l-7.08,1.89a18.63,18.63,0,0,1,.8,3.55,36.37,36.37,0,0,1,.33,5.32V60.91h7.9V39.51A6.4,6.4,0,0,1,268.42,37a5,5,0,0,1,2.3.59m11.35,10.69h17.5V46.42a27,27,0,0,0-1-7.94,12.81,12.81,0,0,0-3-5.29,9.64,9.64,0,0,0-3.78-2.36,14.46,14.46,0,0,0-5-.83,13.06,13.06,0,0,0-5.31,1,12.36,12.36,0,0,0-4.2,3.07,13.78,13.78,0,0,0-2.9,5.08,23.42,23.42,0,0,0-.88,6.91,19.57,19.57,0,0,0,1,6.44,14.14,14.14,0,0,0,2.87,4.93,12.9,12.9,0,0,0,4.49,3.16,14.91,14.91,0,0,0,5.94,1.12,17.77,17.77,0,0,0,11.4-4.19l-3.07-4.73a11.94,11.94,0,0,1-7.68,3,6,6,0,0,1-4.74-1.89,8,8,0,0,1-1.65-5.43Zm9.28-6.13v.35H282.2v-.12a8.22,8.22,0,0,1,1.23-4.88,4.11,4.11,0,0,1,3.49-1.69,3.93,3.93,0,0,1,3.49,1.78,5.29,5.29,0,0,1,.73,1.83,13.9,13.9,0,0,1,.21,2.73" transform="translate(0 0)"/><path class="cls-1" d="M79.52,79.43h2V99.19H92.25V101H79.52Z" transform="translate(0 0)"/><path class="cls-1" d="M94.59,79.3h2.1v2.24h-2.1Zm.15,6.7h1.8v15h-1.8Z" transform="translate(0 0)"/><path class="cls-1" d="M105.7,98.53,110.84,86h2l-6.09,15h-2l-6.1-15h2Z" transform="translate(0 0)"/><path class="cls-1" d="M115.69,93.89a6.6,6.6,0,0,0,1.36,4.28,4.83,4.83,0,0,0,4,1.64,4.18,4.18,0,0,0,2.84-1.07,4.24,4.24,0,0,0,1.46-2.43h2a6.69,6.69,0,0,1-2.4,3.88,7.18,7.18,0,0,1-4.4,1.27,6,6,0,0,1-4.92-2.19,9,9,0,0,1-1.77-5.77,8.62,8.62,0,0,1,1.86-5.73,6.82,6.82,0,0,1,9.64-.42l.42.42a9.63,9.63,0,0,1,1.75,6.17Zm.06-1.65h9.71A5.82,5.82,0,0,0,124,88.56a4.43,4.43,0,0,0-3.45-1.38,4.18,4.18,0,0,0-3.39,1.47A6.32,6.32,0,0,0,115.75,92.24Z" transform="translate(0 0)"/><path class="cls-1" d="M137.91,101V79.43h1.8V101Z" transform="translate(0 0)"/><path class="cls-1" d="M143.56,79.3h2.1v2.24h-2.1Zm.15,6.7h1.8v15h-1.8Z" transform="translate(0 0)"/><path class="cls-1" d="M147.79,86h3V82.71a3.68,3.68,0,0,1,.9-2.69,3.62,3.62,0,0,1,2.72-.92,4.94,4.94,0,0,1,1.7.33v1.45a5.12,5.12,0,0,0-1.17-.13,2.25,2.25,0,0,0-1.86.62,3.1,3.1,0,0,0-.48,1.94V86h3.51v1.65H152.6V101h-1.81V87.65h-3Z" transform="translate(0 0)"/><path class="cls-1" d="M159.65,93.89A6.59,6.59,0,0,0,161,98.17a4.83,4.83,0,0,0,3.93,1.64,4.18,4.18,0,0,0,2.84-1.07,4.24,4.24,0,0,0,1.46-2.43h2a6.69,6.69,0,0,1-2.4,3.88,7.18,7.18,0,0,1-4.4,1.27,6,6,0,0,1-4.92-2.19,9,9,0,0,1-1.77-5.77,8.62,8.62,0,0,1,1.86-5.73,6.82,6.82,0,0,1,9.64-.42q.21.2.42.42a9.63,9.63,0,0,1,1.75,6.17Zm.06-1.65h9.71A5.8,5.8,0,0,0,168,88.56a4.43,4.43,0,0,0-3.45-1.38,4.18,4.18,0,0,0-3.39,1.47,6.34,6.34,0,0,0-1.45,3.59Z" transform="translate(0 0)"/><path class="cls-1" d="M179.7,86h2.2L187,98.55,192.05,86H194l-8.35,20.85h-2l2.3-5.78Z" transform="translate(0 0)"/><path class="cls-1" d="M194.87,93.5a8.4,8.4,0,0,1,1.94-5.78,6.47,6.47,0,0,1,5.08-2.19,6.34,6.34,0,0,1,5.23,2.3A8.63,8.63,0,0,1,209,93.5a8.31,8.31,0,0,1-2,5.78,6.61,6.61,0,0,1-5.14,2.18,6.3,6.3,0,0,1-5.11-2.31A8.57,8.57,0,0,1,194.87,93.5Zm1.95,0a7.2,7.2,0,0,0,1.41,4.43A4.44,4.44,0,0,0,202,99.81a4.3,4.3,0,0,0,3.81-2,7.62,7.62,0,0,0,1.3-4.36A7.08,7.08,0,0,0,205.65,89a4.43,4.43,0,0,0-3.72-1.8,4.36,4.36,0,0,0-3.76,1.88,7.42,7.42,0,0,0-1.35,4.42Z" transform="translate(0 0)"/><path class="cls-1" d="M211.76,86h1.8v9.6a4.39,4.39,0,0,0,1,3.11,3.79,3.79,0,0,0,2.89,1.1,4,4,0,0,0,3.21-1.39,5.72,5.72,0,0,0,1.15-3.74V86h1.81V97.77c0,.67,0,1.74.14,3.23H221.9c-.06-.84-.09-1.63-.09-2.35a5.35,5.35,0,0,1-4.84,2.81,4.78,4.78,0,0,1-3.91-1.62,7,7,0,0,1-1.32-4.54Z" transform="translate(0 0)"/><path class="cls-1" d="M234.53,85.53v1.7h-1.14a3.61,3.61,0,0,0-3,1.31,5.48,5.48,0,0,0-1,3.55v9h-1.8V89.22a22.16,22.16,0,0,0-.15-3.22h1.87c.05.84.08,1.63.08,2.34a4.55,4.55,0,0,1,1.51-2.15,4.16,4.16,0,0,1,2.45-.66Z" transform="translate(0 0)"/><path class="cls-1" d="M242.22,86h2l4.6,12.65L253.47,86h2.17L260,98.71,264.44,86h2l-5.62,15H259l-4.54-13.07L249.62,101h-1.77Z" transform="translate(0 0)"/><path class="cls-1" d="M267.57,89.75a4.43,4.43,0,0,1,1.67-3.18,6.55,6.55,0,0,1,4-1,6,6,0,0,1,3.85,1.15,4.65,4.65,0,0,1,1.44,3.86V97.8c0,.45.05,1.52.14,3.2h-1.86c0-.78-.06-1.55-.06-2.32a3.8,3.8,0,0,1-1.68,1.88,5.7,5.7,0,0,1-3.21.9,5,5,0,0,1-3.53-1.26,4.72,4.72,0,0,1,0-6.68c.12-.11.23-.22.36-.32q1.72-1.47,6.21-1.47h1.83v-1.4a3,3,0,0,0-.86-2.33,3.76,3.76,0,0,0-2.64-.82,4.54,4.54,0,0,0-2.62.63,2.64,2.64,0,0,0-1,1.94Zm9.11,3.69h-.86q-4.17,0-5.57.88a2.81,2.81,0,0,0-1.37,2.54,2.75,2.75,0,0,0,.89,2.16,3.71,3.71,0,0,0,2.46.79,4.17,4.17,0,0,0,3.3-1.33,5.75,5.75,0,0,0,1.15-3.84Z" transform="translate(0 0)"/><path class="cls-1" d="M280.24,86h2.2l5.06,12.55L292.59,86h2l-8.35,20.85h-2l2.3-5.78Z" transform="translate(0 0)"/><path class="cls-1" d="M295.43,98.4h2.4V101h-2.4Z" transform="translate(0 0)"/></g></svg>